Coordinates
version=1
nRows=7
nColumns=33
inDegrees=yes

Units are S.I. units (second, meters, Newtons, ...)
Angles are in degrees.

endheader
time	ground_thorax_rot_x	ground_thorax_rot_y	ground_thorax_rot_z	ground_thorax_tx	ground_thorax_ty	ground_thorax_tz	clav_prot_r	clav_elev_r	scapula_abduction_r	scapula_elevation_r	scapula_upward_rot_r	scapula_winging_r	shoulder_elv_r	plane_of_elev_r	axial_rot_r	elbow_flexion_r	pro_sup_r	wrist_flex_r	wrist_dev_r	clav_prot_l	clav_elev_l	scapula_abduction_l	scapula_elevation_l	scapula_upward_rot_l	scapula_winging_l	shoulder_elv_l	plane_of_elev_l	axial_rot_l	elbow_flexion_l	pro_sup_l	wrist_flex_l	wrist_dev_l
      6.17000000	     39.38711984	      4.00168797	     18.83438429	    -77.04356674	    792.50724909	     -5.70565189	     15.75836192	     39.33173561	     38.52783681	     44.74961964	    -38.44520921	  -2959.11059236	  -1916.85024515	    149.14410232	   -113.14637718	   1449.87295567	     24.27673090	     17.45255681	     10.56767767	      8.70598542	    -45.00000000	    -36.23930387	     45.00000000	    -42.76071153	   2608.93716489	  -3699.29960155	    141.00048507	    156.56838073	    365.63804533	     19.81241024	     10.95794697	    -18.80743847
      6.18000000	     39.24852386	      4.49425482	     19.43976570	    -82.37689970	    792.91298150	     -5.85606025	     15.84418708	     39.17900830	     38.11775978	     45.00000000	    -39.78182452	  -2958.99060642	  -1916.48100859	    149.12908280	   -113.26736501	   1449.96701851	     24.73642721	     17.47723145	     10.40945573	      8.92876387	    -45.00000000	    -35.62402530	     45.00000000	    -44.44160336	   2609.16852554	  -3699.00861985	    141.00218029	    156.25805658	    365.78369154	     20.10603826	     11.11996768	    -18.92193410
      6.19000000	     39.11548159	      4.70352283	     19.70225898	    -87.75409890	    793.45157730	     -5.99277876	     15.69028351	     38.86232595	     37.80842750	     45.00000000	    -40.36730554	  -2959.21049480	  -1916.40508358	    149.14704202	   -112.46185363	   1450.04173500	     25.31449494	     17.54028234	     10.40156845	      9.08377555	    -45.00000000	    -35.42228255	     45.00000000	    -45.00000000	   2609.67233561	  -3699.04057401	    141.19864247	    155.30643656	    365.93139330	     20.57185131	     11.10212859	    -19.08505223
      6.20000000	     39.04599923	      4.66773226	     19.64284776	    -93.15710745	    794.12233365	     -6.11829134	     15.70312591	     38.65630224	     37.60579497	     45.00000000	    -40.84990904	  -2959.38268331	  -1916.29265118	    149.14430303	   -111.95613568	   1450.15021066	     25.87026949	     17.59156575	     10.29962520	      9.29006994	    -45.00000000	    -35.26213361	     45.00000000	    -45.00000000	   2610.06760971	  -3699.08953166	    141.50317071	    154.49755849	    366.06684721	     21.08196787	     11.17470068	    -19.23733582
      6.21000000	     38.91212761	      4.66128598	     19.62089414	    -98.56786984	    794.92122169	     -6.23656876	     15.55187740	     38.50265235	     37.33992022	     45.00000000	    -41.66281482	  -2959.35063608	  -1916.02895020	    149.09905582	   -112.14284777	   1450.19708512	     26.35588813	     17.60464892	     10.12598634	      9.36768785	    -45.00000000	    -35.25475093	     45.00000000	    -45.00000000	   2610.58703977	  -3699.15584224	    141.77196224	    153.53232804	    366.26131626	     21.59008897	     11.34277531	    -19.43737106
      6.22000000	     38.77747389	      4.75056216	     19.69385612	   -103.96840871	    795.84285414	     -6.35129114	     15.46950692	     38.34742019	     37.09698697	     45.00000000	    -42.05273932	  -2959.62306836	  -1916.04423015	    149.13838732	   -111.40233198	   1450.32793862	     26.94986052	     17.72666225	     10.13306111	      9.49610020	    -45.00000000	    -35.12575560	     45.00000000	    -45.00000000	   2611.14061329	  -3699.23939601	    142.05303061	    152.30373521	    366.37839963	     22.22283474	     11.27540797	    -19.62659985
      6.23000000	     38.67187395	      4.73519352	     19.63881868	   -109.33491230	    796.87874316	     -6.46752637	     15.49326292	     38.12209818	     36.84028611	     45.00000000	    -42.89454767	  -2959.56654541	  -1915.67639358	    149.08887401	   -111.84521072	   1450.39472263	     27.41736294	     17.68633424	      9.85064335	      9.71953403	    -45.00000000	    -35.02250018	     45.00000000	    -45.00000000	   2611.53121578	  -3699.19584401	    142.44135554	    151.03086946	    366.62712234	     22.77250613	     11.33703936	    -19.77951127
